<?xml version="1.0" encoding="utf-8"?>
<!-- Generator: Adobe Illustrator 15.0.0, SVG Export Plug-In . SVG Version: 6.00 Build 0)  -->
<!DOCTYPE svg PUBLIC "-//W3C//DTD SVG 1.1//EN" "http://www.w3.org/Graphics/SVG/1.1/DTD/svg11.dtd">
<svg version="1.1" id="Layer_1" xmlns="http://www.w3.org/2000/svg" xmlns:xlink="http://www.w3.org/1999/xlink" x="0px" y="0px"
	 width="191px" height="23.53px" viewBox="0 0 191 23.53" enable-background="new 0 0 191 23.53" xml:space="preserve">
<g>
	<g>
		<polygon fill="#FFFFFF" points="19.822,1.356 17.565,9.21 11.725,9.211 13.982,1.356 6.102,1.358 0,22.383 7.881,22.381 
			10.148,14.643 15.989,14.642 13.72,22.381 19.757,22.379 25.86,1.355 		"/>
	</g>
	<g>
		<polygon fill="#FFFFFF" points="72.535,10.086 69.849,1.349 61.641,1.35 68.188,23.53 80.674,8.898 78.623,3.19 		"/>
	</g>
	<g>
		<polygon fill="#FFFFFF" points="96.57,1.345 90.956,7.801 89.102,1.347 81.513,1.347 83.455,7.683 85.433,13.5 82.857,22.37 
			89.79,22.369 92.365,13.492 103.328,1.344 		"/>
	</g>
	<g>
		<g>
			<path fill="#FFFFFF" d="M119.17,3.14c-0.486-0.642-1.183-1.11-2.129-1.43c-1.011-0.341-2.627-0.386-4.075-0.386
				c-0.373,0-6.765,0.013-6.765,0.013l-6.132,21.128h4.684l2.419-8.338l3.2-0.001c2.276,0,4.286-0.581,5.974-1.726
				c1.697-1.154,2.847-2.732,3.414-4.689C120.291,5.881,120.092,4.344,119.17,3.14z M116.047,7.669
				c-0.582,2.011-2.204,2.988-4.956,2.988l-2.912,0.001l1.703-5.868h2.773C115.501,4.79,116.609,5.732,116.047,7.669z"/>
		</g>
	</g>
	<g>
		<polygon fill="#FFFFFF" points="134.991,13.342 136.009,9.835 126.399,9.837 127.85,4.842 137.705,4.84 138.724,1.332 
			124.186,1.333 118.055,22.462 132.592,22.46 133.609,18.952 123.754,18.954 125.383,13.345 		"/>
	</g>
	<g>
		<g>
			<path fill="#FFFFFF" d="M156.791,11.894c0.934-3.218,0.562-5.854-1.105-7.835c-0.826-0.985-1.877-1.692-3.116-2.098
				c-1.141-0.418-2.815-0.63-4.976-0.629l-5.615,0.001l-6.131,21.127h5.56c2.18-0.001,3.949-0.199,5.252-0.587
				c1.404-0.393,2.858-1.099,4.321-2.099C153.9,17.772,155.854,15.121,156.791,11.894z M152.928,11.894
				c-0.62,2.139-1.892,3.896-3.774,5.22c-0.917,0.643-1.886,1.118-2.874,1.412c-0.996,0.281-2.21,0.425-3.607,0.425h-1.124
				l4.097-14.112l1.124,0c2.631,0,4.577,0.338,5.563,1.526C153.43,7.699,153.554,9.735,152.928,11.894z"/>
		</g>
	</g>
	<g>
		<g>
			<path fill="#FFFFFF" d="M152.67,22.457l4.996-0.002l3.958-4.819h8.452l1.037,4.817l4.003,0.001l-5.04-22.495L152.67,22.457z
				 M164.04,14.226l4.323-5.718l1.135,5.718H164.04z"/>
		</g>
	</g>
	<g>
		<polygon fill="#FFFFFF" points="182.615,18.945 187.729,1.325 183.047,1.326 176.915,22.453 189.982,22.451 191,18.944 		"/>
	</g>
	<g>
		<polygon fill="#FFFFFF" points="37.733,22.376 46.665,22.376 55.365,12.816 58.38,22.373 64.491,22.373 57.537,0 		"/>
	</g>
	<g>
		<polygon fill="#FFFFFF" points="32.45,17.023 33.205,14.59 39.961,14.589 44.605,9.177 34.881,9.178 35.599,6.862 46.562,6.861 
			51.23,1.43 29.693,1.433 23.591,22.456 33.156,22.455 37.825,17.023 		"/>
	</g>
</g>
</svg>
